<svg width="146" height="37" viewBox="0 0 146 37" fill="none" xmlns="http://www.w3.org/2000/svg">
<path d="M138.664 32.477H138.394C138.345 32.477 138.298 32.4576 138.264 32.4231C138.229 32.3886 138.21 32.3418 138.21 32.293V28.193H136.878C136.829 28.193 136.782 28.1736 136.748 28.1391C136.713 28.1046 136.694 28.0578 136.694 28.009V27.763C136.694 27.7142 136.713 27.6674 136.748 27.6329C136.782 27.5984 136.829 27.579 136.878 27.579H140.178C140.227 27.579 140.274 27.5984 140.308 27.6329C140.343 27.6674 140.362 27.7142 140.362 27.763V28.009C140.362 28.0578 140.343 28.1046 140.308 28.1391C140.274 28.1736 140.227 28.193 140.178 28.193H138.845V32.293C138.845 32.3173 138.84 32.3414 138.831 32.3638C138.822 32.3863 138.808 32.4066 138.791 32.4238C138.774 32.4409 138.753 32.4544 138.731 32.4636C138.708 32.4727 138.684 32.4773 138.66 32.477H138.664Z" fill="#636363"/>
<path d="M145.628 32.477H145.369C145.32 32.477 145.273 32.4576 145.239 32.4231C145.204 32.3886 145.185 32.3418 145.185 32.293V28.82L143.456 31.955C143.441 31.9847 143.418 32.0097 143.389 32.0273C143.361 32.045 143.328 32.0545 143.295 32.055H143.166C143.133 32.0545 143.1 32.045 143.072 32.0273C143.043 32.0097 143.02 31.9847 143.005 31.955L141.272 28.82V32.295C141.272 32.3438 141.253 32.3906 141.218 32.4251C141.184 32.4596 141.137 32.479 141.088 32.479H140.837C140.788 32.479 140.741 32.4596 140.707 32.4251C140.672 32.3906 140.653 32.3438 140.653 32.295V27.767C140.653 27.7182 140.672 27.6714 140.707 27.6369C140.741 27.6024 140.788 27.583 140.837 27.583H141.189C141.222 27.5827 141.254 27.5913 141.283 27.6079C141.311 27.6244 141.335 27.6483 141.351 27.677L143.229 31.087L145.112 27.677C145.128 27.6484 145.151 27.6245 145.18 27.608C145.208 27.5914 145.24 27.5828 145.273 27.583H145.627C145.676 27.583 145.723 27.6024 145.757 27.6369C145.792 27.6714 145.811 27.7182 145.811 27.767V32.297C145.81 32.3449 145.79 32.3906 145.756 32.4242C145.722 32.4578 145.676 32.4768 145.628 32.477Z" fill="#636363"/>
<path d="M56.13 15.194C53.046 15.117 51.211 15.543 49.155 17.382V15.536C49.155 15.1382 48.997 14.7567 48.7157 14.4754C48.4344 14.1941 48.0529 14.036 47.655 14.036C47.2572 14.036 46.8757 14.1941 46.5944 14.4754C46.3131 14.7567 46.155 15.1382 46.155 15.536V32.07C46.155 32.1986 46.2061 32.322 46.2971 32.413C46.388 32.5039 46.5114 32.555 46.64 32.555H48.659C48.7877 32.555 48.911 32.5039 49.002 32.413C49.0929 32.322 49.144 32.1986 49.144 32.07V20.233C49.905 19.4601 50.8133 18.8479 51.8153 18.4328C52.8173 18.0176 53.8925 17.8079 54.977 17.816C57.377 17.816 58.888 19.45 58.888 22.344V32.072C58.888 32.2003 58.9389 32.3234 59.0294 32.4143C59.1199 32.5052 59.2427 32.5565 59.371 32.557H61.371C61.4993 32.5565 61.6222 32.5052 61.7127 32.4143C61.8032 32.3234 61.854 32.2003 61.854 32.072V21.458C61.87 17.408 59.535 15.282 56.13 15.194Z" fill="#848484"/>
<path d="M76.879 12.54C78.7539 12.4929 80.5768 13.1595 81.979 14.405C82.3087 14.6949 82.7208 14.8745 83.1576 14.9186C83.5944 14.9627 84.034 14.8691 84.415 14.651H84.428C84.7312 14.4788 84.9874 14.2346 85.1741 13.94C85.3607 13.6455 85.4721 13.3096 85.4984 12.9618C85.5247 12.6141 85.465 12.2652 85.3248 11.946C85.1845 11.6267 84.9679 11.3468 84.694 11.131C82.4625 9.3589 79.6965 8.39486 76.847 8.39599C75.2171 8.36307 73.5971 8.65565 72.0818 9.2566C70.5664 9.85756 69.1861 10.7548 68.0219 11.8958C66.8576 13.0368 65.9326 14.3987 65.3011 15.9016C64.6697 17.4045 64.3445 19.0183 64.3445 20.6485C64.3445 22.2787 64.6697 23.8925 65.3011 25.3954C65.9326 26.8983 66.8576 28.2602 68.0219 29.4012C69.1861 30.5422 70.5664 31.4394 72.0818 32.0404C73.5971 32.6413 75.2171 32.9339 76.847 32.901C79.6848 32.9011 82.4405 31.9482 84.672 30.195C84.9472 29.98 85.1652 29.7004 85.3067 29.381C85.4481 29.0617 85.5087 28.7124 85.483 28.364C85.4573 28.0157 85.3461 27.6791 85.1593 27.384C84.9725 27.0888 84.7158 26.8443 84.412 26.672C84.0325 26.4537 83.5942 26.3595 83.1585 26.4025C82.7228 26.4455 82.3115 26.6237 81.982 26.912C80.5744 28.1452 78.7526 28.8007 76.882 28.747C75.8287 28.7695 74.7823 28.5723 73.8095 28.1678C72.8367 27.7634 71.9588 27.1606 71.232 26.398C70.4887 25.6389 69.9042 24.7392 69.5128 23.7516C69.1213 22.764 68.9306 21.7082 68.952 20.646C68.9279 19.5887 69.1174 18.5374 69.5091 17.555C69.9009 16.5727 70.4869 15.6795 71.232 14.929C71.9509 14.1542 72.8259 13.5406 73.7993 13.1288C74.7727 12.717 75.8223 12.5163 76.879 12.54Z" fill="#636363"/>
<path d="M109.304 28.11L109.267 28.09C108.967 27.9174 108.621 27.8395 108.276 27.8665C107.931 27.8934 107.602 28.024 107.332 28.241C106.552 28.8538 105.617 29.2372 104.632 29.3482C103.647 29.4592 102.65 29.2934 101.753 28.8694C100.857 28.4454 100.096 27.78 99.5569 26.9479C99.0176 26.1157 98.7208 25.1498 98.6999 24.1583C98.679 23.1669 98.9347 22.1893 99.4385 21.3351C99.9422 20.4809 100.674 19.784 101.552 19.3226C102.43 18.8612 103.418 18.6534 104.408 18.7228C105.397 18.7921 106.347 19.1357 107.152 19.715C107.425 19.9298 107.754 20.0601 108.1 20.0898C108.446 20.1195 108.793 20.0472 109.098 19.882L109.122 19.869C109.378 19.7276 109.593 19.5242 109.749 19.2775C109.905 19.0308 109.997 18.7488 110.015 18.4574C110.034 18.166 109.978 17.8747 109.854 17.6104C109.73 17.3461 109.542 17.1172 109.306 16.945C107.715 15.8026 105.806 15.1881 103.847 15.188C102.64 15.1625 101.441 15.3784 100.319 15.8228C99.1969 16.2672 98.175 16.9313 97.313 17.776C96.4629 18.5832 95.786 19.5549 95.3234 20.6321C94.8608 21.7092 94.6223 22.8692 94.6223 24.0415C94.6223 25.2138 94.8608 26.3738 95.3234 27.4509C95.786 28.5281 96.4629 29.4998 97.313 30.307C98.1752 31.1513 99.1972 31.8149 100.319 32.259C101.441 32.703 102.641 32.9186 103.847 32.893C105.902 32.9001 107.902 32.2298 109.537 30.986C109.761 30.809 109.937 30.5796 110.051 30.3182C110.165 30.0567 110.213 29.7712 110.19 29.4869C110.168 29.2025 110.075 28.9282 109.921 28.688C109.768 28.4479 109.557 28.2493 109.308 28.11H109.304Z" fill="#636363"/>
<path d="M128.126 15.194C126.965 15.1954 125.817 15.4256 124.745 15.8713C123.674 16.317 122.7 16.9694 121.881 17.7914C121.062 18.6134 120.413 19.5888 119.971 20.6618C119.529 21.7349 119.303 22.8845 119.305 24.045C119.29 25.2127 119.515 26.371 119.966 27.4483C120.417 28.5256 121.084 29.4989 121.926 30.308C122.758 31.1477 123.752 31.8098 124.847 32.2543C125.943 32.6988 127.117 32.9164 128.299 32.894C130.423 32.924 132.503 32.2864 134.246 31.071C134.418 30.9512 134.561 30.7939 134.664 30.6109C134.767 30.4279 134.827 30.224 134.84 30.0145C134.852 29.805 134.817 29.5953 134.738 29.4012C134.658 29.2072 134.535 29.0337 134.378 28.894L134.297 28.822C134.057 28.6126 133.754 28.491 133.436 28.4774C133.118 28.4638 132.805 28.5589 132.548 28.747C131.398 29.5307 130.03 29.9333 128.639 29.898C127.295 29.9146 125.991 29.4431 124.968 28.571C124.477 28.147 124.078 27.6262 123.797 27.0412C123.516 26.4562 123.358 25.8196 123.334 25.171H135.824C136.122 25.171 136.408 25.0527 136.618 24.8421C136.829 24.6315 136.947 24.3458 136.947 24.048C136.986 22.8922 136.796 21.7401 136.386 20.6587C135.976 19.5772 135.356 18.5878 134.561 17.748C133.73 16.8913 132.727 16.2207 131.618 15.7805C130.508 15.3402 129.318 15.1403 128.126 15.194ZM123.354 23.16C123.337 21.8576 123.836 20.6012 124.741 19.6647C125.646 18.7282 126.885 18.1873 128.187 18.16C128.844 18.1351 129.499 18.2485 130.11 18.4927C130.721 18.737 131.274 19.1067 131.732 19.578C132.191 20.0493 132.546 20.6116 132.774 21.2286C133.002 21.8456 133.097 22.5036 133.055 23.16H123.354Z" fill="#636363"/>
<path d="M42.089 7.13599C41.6665 7.13599 41.2613 7.30382 40.9626 7.60257C40.6639 7.90131 40.496 8.30649 40.496 8.72898V32.069C40.496 32.1327 40.5086 32.1957 40.5329 32.2546C40.5573 32.3134 40.593 32.3669 40.6381 32.4119C40.6831 32.457 40.7366 32.4927 40.7954 32.5171C40.8543 32.5414 40.9173 32.554 40.981 32.554H43.196C43.3247 32.554 43.448 32.5029 43.539 32.4119C43.6299 32.321 43.681 32.1976 43.681 32.069V8.72699C43.6805 8.30502 43.5126 7.9005 43.2141 7.60221C42.9156 7.30393 42.511 7.13625 42.089 7.13599Z" fill="#848484"/>
<path d="M90.061 13.463C89.7886 13.4628 89.5189 13.5161 89.2672 13.6201C89.0154 13.7241 88.7866 13.8767 88.5939 14.0691C88.4011 14.2615 88.2481 14.49 88.1436 14.7415C88.0392 14.993 87.9852 15.2627 87.985 15.535V32.069C87.985 32.1976 88.0361 32.321 88.127 32.412C88.218 32.5029 88.3414 32.554 88.47 32.554H91.653C91.7167 32.554 91.7797 32.5415 91.8386 32.5171C91.8974 32.4927 91.9509 32.457 91.9959 32.412C92.041 32.3669 92.0767 32.3135 92.1011 32.2546C92.1254 32.1958 92.138 32.1327 92.138 32.069V15.535C92.1377 15.2626 92.0838 14.9928 91.9793 14.7413C91.8747 14.4897 91.7217 14.2611 91.5288 14.0687C91.3359 13.8763 91.107 13.7238 90.8551 13.6198C90.6033 13.5159 90.3335 13.4626 90.061 13.463Z" fill="#636363"/>
<path d="M114.752 8.13499C114.202 8.13499 113.675 8.35316 113.285 8.74162C112.896 9.13008 112.677 9.65709 112.676 10.207C112.679 10.2923 112.686 10.3775 112.698 10.462V32.069C112.698 32.1975 112.749 32.3207 112.84 32.4116C112.931 32.5025 113.054 32.5537 113.183 32.554H116.333C116.462 32.554 116.585 32.5029 116.676 32.4119C116.767 32.321 116.818 32.1976 116.818 32.069V10.462C116.829 10.3781 116.834 10.2936 116.834 10.209C116.834 9.93604 116.78 9.66577 116.675 9.41369C116.571 9.1616 116.417 8.93265 116.224 8.73997C116.031 8.54729 115.801 8.39467 115.549 8.29085C115.296 8.18704 115.026 8.13407 114.753 8.13499H114.752Z" fill="#636363"/>
<path d="M90.061 12.279C91.2076 12.279 92.137 11.3513 92.137 10.207C92.137 9.06268 91.2076 8.13501 90.061 8.13501C88.9145 8.13501 87.985 9.06268 87.985 10.207C87.985 11.3513 88.9145 12.279 90.061 12.279Z" fill="#636363"/>
<path d="M21.882 17.731C21.8951 17.6492 21.8865 17.5655 21.8571 17.4881C21.8277 17.4107 21.7785 17.3424 21.7145 17.2899C21.6505 17.2374 21.5738 17.2026 21.4921 17.1889C21.4105 17.1752 21.3267 17.1832 21.249 17.212C16.521 19.183 13.788 24.003 13.356 24.805C13.3156 24.8791 13.2959 24.9627 13.299 25.047L13.631 35.693V35.733C15.0796 36.099 16.5679 36.2841 18.062 36.284C18.9752 36.2836 19.8871 36.2147 20.79 36.078C20.8124 35.9888 20.8221 35.8969 20.819 35.805C20.7687 29.7634 21.1238 23.7251 21.882 17.731Z" fill="url(#paint0_linear_1_7)"/>
<path d="M18.066 15.853C20.9246 15.853 23.242 13.5406 23.242 10.688C23.242 7.83546 20.9246 5.52301 18.066 5.52301C15.2074 5.52301 12.89 7.83546 12.89 10.688C12.89 13.5406 15.2074 15.853 18.066 15.853Z" fill="url(#paint1_linear_1_7)"/>
<path d="M31.621 30.144L31.698 30.058C31.85 29.874 31.998 29.691 32.15 29.507L32.161 29.492C34.2914 26.8268 35.6276 23.6153 36.0166 20.2256C36.4056 16.8359 35.8315 13.4052 34.3602 10.3267C32.889 7.2483 30.58 4.64673 27.6981 2.82026C24.8162 0.993798 21.4779 0.0163599 18.066 0C14.6661 0.0183725 11.3397 0.990657 8.46508 2.80623C5.59049 4.62181 3.28321 7.20777 1.80575 10.2699C0.328292 13.332 -0.260025 16.7474 0.107737 20.1274C0.475499 23.5074 1.78457 26.7163 3.88602 29.389L3.92602 29.439C4.02602 29.573 4.13902 29.703 4.24702 29.834L4.39402 30.007C4.49402 30.124 4.59402 30.238 4.69402 30.352C4.79402 30.466 4.87802 30.558 4.97802 30.659L5.00002 30.676C7.02348 32.8069 9.53606 34.4123 12.32 35.353V32C9.13176 30.6452 6.50713 28.234 4.88734 25.1718C3.26756 22.1096 2.75137 18.5832 3.42557 15.1852C4.09976 11.7872 5.92322 8.72499 8.58943 6.5132C11.2556 4.30142 14.602 3.07496 18.066 3.04C21.6806 3.07352 25.1628 4.40453 27.8781 6.79049C30.5935 9.17646 32.3613 12.4586 32.8594 16.0388C33.3575 19.619 32.5527 23.259 30.5918 26.2956C28.6308 29.3321 25.6441 31.5631 22.176 32.582V35.82C25.4423 35.0539 28.43 33.3916 30.803 31.02C30.876 30.945 30.95 30.871 31.021 30.796C31.092 30.721 31.205 30.612 31.28 30.523C31.4 30.4 31.509 30.271 31.621 30.144Z" fill="url(#paint2_linear_1_7)"/>
<defs>
<linearGradient id="paint0_linear_1_7" x1="14.1061" y1="22.9511" x2="25.5547" y2="25.2663" gradientUnits="userSpaceOnUse">
<stop stop-color="#055B8F"/>
<stop offset="1" stop-color="#79CDE4"/>
</linearGradient>
<linearGradient id="paint1_linear_1_7" x1="14.4118" y1="7.03119" x2="21.7047" y2="14.3603" gradientUnits="userSpaceOnUse">
<stop stop-color="#055B8F"/>
<stop offset="1" stop-color="#79CDE4"/>
</linearGradient>
<linearGradient id="paint2_linear_1_7" x1="5.2767" y1="5.33718" x2="30.6341" y2="31.1697" gradientUnits="userSpaceOnUse">
<stop stop-color="#055B8F"/>
<stop offset="1" stop-color="#79CDE4"/>
</linearGradient>
</defs>
</svg>
